<svg xmlns="http://www.w3.org/2000/svg" viewBox="0 0 136 105.49">
    <defs>
        <style>.cls-1{fill:#3f51b5;}.cls-2{fill:#fff;}</style>
    </defs>
    <g>
        <g>
            <g>
                <path class="cls-1" d="M100,9H36A12,12,0,0,0,24,21V53h88V21A12,12,0,0,0,100,9Z"/>
            </g>
            <g>
                <rect class="cls-1" x="24" y="56.99" width="88" height="44"/>
            </g>
            <g>
                <rect class="cls-1" y="56.99" width="20" height="44"/>
            </g>
            <g>
                <rect class="cls-1" x="116" y="56.99" width="20" height="44"/>
            </g>
            <g>
                <circle class="cls-2" cx="48.5" cy="25.99" r="7.5"/>
                <circle class="cls-2" cx="87.5" cy="25.99" r="7.5"/>
            </g>
            <g>
                <polygon class="cls-1" points="93.77 105.49 105.18 105.49 108.41 100.99 90.98 100.99 93.77 105.49"/>
                <polygon class="cls-1" points="20 73.2 20 90.23 24 95.77 24 79.2 20 73.2"/>
                <polygon class="cls-1" points="31.02 105.49 42.23 105.49 45.07 100.99 27.77 100.99 31.02 105.49"/>
                <polygon class="cls-1" points="116 73.38 112 79.33 112 95.99 116 90.42 116 73.38"/>
                <polygon class="cls-1" points="112 100.99 112 95.99 108.41 100.99 112 100.99"/>
                <polygon class="cls-1" points="24 100.99 27.77 100.99 24 95.77 24 100.99"/>
                <polygon class="cls-1" points="62.3 56.99 24 56.99 24 79.2 36.72 98.26 62.3 56.99"/>
                <polygon class="cls-1" points="73.7 56.99 99.28 98.26 112 79.33 112 56.99 73.7 56.99"/>
                <polygon class="cls-1" points="45.07 100.99 90.98 100.99 68.2 64.31 45.07 100.99"/>
            </g>
            <g>
                <path class="cls-1" d="M95.66,8.49c-.94-4.91-1.43-7.57-1.49-8L87.61,0c-.13.27-1.38,3.11-3.74,8.49Z"/>
                <path class="cls-1" d="M52.1,8.49Q48.69.76,48.37,0L41.46,1c-.13.6-.66,3.11-1.56,7.49Z"/>
                <path class="cls-1" d="M64.43,52.49l.06.13h6l.06-.13Z"/>
                <path class="cls-1" d="M36,52.49H30.48c-.35,1.5-.68,3-1,4.5H36.3c.27-1.51.55-3,.82-4.5Z"/>
                <path class="cls-1" d="M100,52.49H97.13L98,57h7.31c-.32-1.51-.62-3-.93-4.5Z"/>
            </g>
        </g>
    </g>
</svg>